<mxfile host="app.diagrams.net" modified="2024-05-18T22:19:59.015Z" agent="Mozilla/5.0 (Windows NT 10.0; Win64; x64) AppleWebKit/537.36 (KHTML, like Gecko) Chrome/124.0.0.0 Safari/537.36 Edg/124.0.0.0" etag="mfT180zgGw5FxKVIC36C" version="24.4.4" type="device">
  <diagram name="Page-1" id="oQQ7_ljhtHYFDeojWaqg">
    <mxGraphModel dx="1426" dy="751" grid="1" gridSize="10" guides="1" tooltips="1" connect="1" arrows="1" fold="1" page="1" pageScale="1" pageWidth="827" pageHeight="1169" math="0" shadow="0">
      <root>
        <mxCell id="0" />
        <mxCell id="1" parent="0" />
        <mxCell id="OJlBbGmLdrQoNpGTSctd-1" value="Client Side&lt;br&gt;e.g., Browser (Firefox, Chrome), iOS/Android App" style="rounded=0;whiteSpace=wrap;html=1;horizontal=1;verticalAlign=top;fillColor=#d5e8d4;strokeColor=#82b366;" parent="1" vertex="1">
          <mxGeometry x="100" y="60" width="300" height="280" as="geometry" />
        </mxCell>
        <mxCell id="OJlBbGmLdrQoNpGTSctd-2" value="Server Side&lt;br&gt;e.g., Azure, AWS or On Premise Server installation" style="rounded=0;whiteSpace=wrap;html=1;horizontal=1;verticalAlign=top;fillColor=#dae8fc;strokeColor=#6c8ebf;" parent="1" vertex="1">
          <mxGeometry x="410" y="60" width="306.67" height="280" as="geometry" />
        </mxCell>
        <mxCell id="OJlBbGmLdrQoNpGTSctd-17" style="edgeStyle=orthogonalEdgeStyle;rounded=0;orthogonalLoop=1;jettySize=auto;html=1;exitX=0;exitY=0.5;exitDx=0;exitDy=0;entryX=0;entryY=0.75;entryDx=0;entryDy=0;" parent="1" source="OJlBbGmLdrQoNpGTSctd-3" target="OJlBbGmLdrQoNpGTSctd-1" edge="1">
          <mxGeometry relative="1" as="geometry">
            <mxPoint x="250" y="280" as="targetPoint" />
            <Array as="points">
              <mxPoint x="230" y="280" />
              <mxPoint x="230" y="270" />
            </Array>
          </mxGeometry>
        </mxCell>
        <mxCell id="OJlBbGmLdrQoNpGTSctd-18" value="HTML" style="edgeLabel;html=1;align=center;verticalAlign=middle;resizable=0;points=[];" parent="OJlBbGmLdrQoNpGTSctd-17" vertex="1" connectable="0">
          <mxGeometry x="-0.0897" y="3" relative="1" as="geometry">
            <mxPoint x="65" y="-3" as="offset" />
          </mxGeometry>
        </mxCell>
        <mxCell id="OJlBbGmLdrQoNpGTSctd-3" value="View (GUI, UX or UI)" style="rounded=0;whiteSpace=wrap;html=1;fillColor=#e1d5e7;strokeColor=#9673a6;" parent="1" vertex="1">
          <mxGeometry x="503.34" y="250" width="120" height="60" as="geometry" />
        </mxCell>
        <mxCell id="OJlBbGmLdrQoNpGTSctd-4" value="Model&lt;br&gt;(Database)" style="rounded=0;whiteSpace=wrap;html=1;fillColor=#ffe6cc;strokeColor=#d79b00;" parent="1" vertex="1">
          <mxGeometry x="580" y="130" width="120" height="60" as="geometry" />
        </mxCell>
        <mxCell id="OJlBbGmLdrQoNpGTSctd-8" style="edgeStyle=orthogonalEdgeStyle;rounded=0;orthogonalLoop=1;jettySize=auto;html=1;exitX=1;exitY=0.5;exitDx=0;exitDy=0;entryX=0;entryY=0.5;entryDx=0;entryDy=0;" parent="1" source="OJlBbGmLdrQoNpGTSctd-5" target="OJlBbGmLdrQoNpGTSctd-4" edge="1">
          <mxGeometry relative="1" as="geometry" />
        </mxCell>
        <mxCell id="OJlBbGmLdrQoNpGTSctd-9" style="edgeStyle=orthogonalEdgeStyle;rounded=0;orthogonalLoop=1;jettySize=auto;html=1;exitX=0.75;exitY=1;exitDx=0;exitDy=0;entryX=0.25;entryY=0;entryDx=0;entryDy=0;" parent="1" source="OJlBbGmLdrQoNpGTSctd-5" target="OJlBbGmLdrQoNpGTSctd-3" edge="1">
          <mxGeometry relative="1" as="geometry" />
        </mxCell>
        <mxCell id="OJlBbGmLdrQoNpGTSctd-11" value="Byte-Stream / in memory" style="edgeLabel;html=1;align=center;verticalAlign=middle;resizable=0;points=[];" parent="OJlBbGmLdrQoNpGTSctd-9" vertex="1" connectable="0">
          <mxGeometry x="-0.465" y="2" relative="1" as="geometry">
            <mxPoint as="offset" />
          </mxGeometry>
        </mxCell>
        <mxCell id="OJlBbGmLdrQoNpGTSctd-13" style="edgeStyle=orthogonalEdgeStyle;rounded=0;orthogonalLoop=1;jettySize=auto;html=1;exitX=0;exitY=0.5;exitDx=0;exitDy=0;entryX=1;entryY=0.5;entryDx=0;entryDy=0;" parent="1" source="OJlBbGmLdrQoNpGTSctd-5" target="OJlBbGmLdrQoNpGTSctd-12" edge="1">
          <mxGeometry relative="1" as="geometry" />
        </mxCell>
        <mxCell id="OJlBbGmLdrQoNpGTSctd-14" value="JSON/ Byte-Stream (gRPC)" style="edgeLabel;html=1;align=center;verticalAlign=middle;resizable=0;points=[];" parent="OJlBbGmLdrQoNpGTSctd-13" vertex="1" connectable="0">
          <mxGeometry x="-0.2084" relative="1" as="geometry">
            <mxPoint x="-15" as="offset" />
          </mxGeometry>
        </mxCell>
        <mxCell id="OJlBbGmLdrQoNpGTSctd-5" value="Controller&lt;br&gt;(Run Calc, other logic)" style="rounded=0;whiteSpace=wrap;html=1;fillColor=#fff2cc;strokeColor=#d6b656;" parent="1" vertex="1">
          <mxGeometry x="420" y="130" width="130" height="60" as="geometry" />
        </mxCell>
        <mxCell id="OJlBbGmLdrQoNpGTSctd-7" style="edgeStyle=orthogonalEdgeStyle;rounded=0;orthogonalLoop=1;jettySize=auto;html=1;exitX=0.5;exitY=1;exitDx=0;exitDy=0;entryX=0.25;entryY=1;entryDx=0;entryDy=0;" parent="1" source="OJlBbGmLdrQoNpGTSctd-1" target="OJlBbGmLdrQoNpGTSctd-5" edge="1">
          <mxGeometry relative="1" as="geometry">
            <Array as="points">
              <mxPoint x="250" y="360" />
              <mxPoint x="310" y="360" />
              <mxPoint x="310" y="230" />
              <mxPoint x="453" y="230" />
              <mxPoint x="453" y="190" />
            </Array>
          </mxGeometry>
        </mxCell>
        <mxCell id="OJlBbGmLdrQoNpGTSctd-10" value="Server Side Rendering&amp;nbsp;&lt;br&gt;&lt;br&gt;(Client Sider Rendering (x)&lt;br&gt;&lt;br&gt;SPA (Single Page Application)&lt;br&gt;&lt;br&gt;PWA (Progressive Web APP))" style="rounded=0;whiteSpace=wrap;html=1;" parent="1" vertex="1">
          <mxGeometry x="559.9999999999999" y="360" width="200" height="140" as="geometry" />
        </mxCell>
        <mxCell id="OJlBbGmLdrQoNpGTSctd-12" value="View (GUI, UX or UI)" style="rounded=0;whiteSpace=wrap;html=1;fillColor=#e1d5e7;strokeColor=#9673a6;" parent="1" vertex="1">
          <mxGeometry x="129.99999999999994" y="140" width="120" height="60" as="geometry" />
        </mxCell>
        <mxCell id="OJlBbGmLdrQoNpGTSctd-21" value="Server" style="rounded=0;whiteSpace=wrap;html=1;fillColor=#dae8fc;strokeColor=#6c8ebf;" parent="1" vertex="1">
          <mxGeometry x="120" y="490" width="360" height="60" as="geometry" />
        </mxCell>
        <mxCell id="OJlBbGmLdrQoNpGTSctd-22" value="Client" style="rounded=0;whiteSpace=wrap;html=1;fillColor=#d5e8d4;strokeColor=#82b366;" parent="1" vertex="1">
          <mxGeometry x="120" y="600" width="360" height="60" as="geometry" />
        </mxCell>
        <mxCell id="OJlBbGmLdrQoNpGTSctd-23" value="" style="shape=flexArrow;endArrow=classic;html=1;rounded=0;" parent="1" edge="1">
          <mxGeometry width="50" height="50" relative="1" as="geometry">
            <mxPoint x="125" y="580" as="sourcePoint" />
            <mxPoint x="475" y="580" as="targetPoint" />
          </mxGeometry>
        </mxCell>
        <mxCell id="OJlBbGmLdrQoNpGTSctd-26" style="edgeStyle=orthogonalEdgeStyle;rounded=0;orthogonalLoop=1;jettySize=auto;html=1;exitX=0.75;exitY=1;exitDx=0;exitDy=0;entryX=0.25;entryY=0;entryDx=0;entryDy=0;" parent="1" source="OJlBbGmLdrQoNpGTSctd-20" target="OJlBbGmLdrQoNpGTSctd-25" edge="1">
          <mxGeometry relative="1" as="geometry" />
        </mxCell>
        <mxCell id="OJlBbGmLdrQoNpGTSctd-59" value="Return entire application" style="edgeLabel;html=1;align=center;verticalAlign=middle;resizable=0;points=[];" parent="OJlBbGmLdrQoNpGTSctd-26" vertex="1" connectable="0">
          <mxGeometry x="-0.3359" y="-2" relative="1" as="geometry">
            <mxPoint as="offset" />
          </mxGeometry>
        </mxCell>
        <mxCell id="OJlBbGmLdrQoNpGTSctd-20" value="wwwroot" style="rounded=0;whiteSpace=wrap;html=1;fillColor=#e1d5e7;strokeColor=#9673a6;" parent="1" vertex="1">
          <mxGeometry x="160" y="500" width="70" height="40" as="geometry" />
        </mxCell>
        <mxCell id="OJlBbGmLdrQoNpGTSctd-24" style="edgeStyle=orthogonalEdgeStyle;rounded=0;orthogonalLoop=1;jettySize=auto;html=1;exitX=0.25;exitY=0;exitDx=0;exitDy=0;entryX=0;entryY=0.5;entryDx=0;entryDy=0;" parent="1" source="OJlBbGmLdrQoNpGTSctd-19" target="OJlBbGmLdrQoNpGTSctd-20" edge="1">
          <mxGeometry relative="1" as="geometry" />
        </mxCell>
        <mxCell id="OJlBbGmLdrQoNpGTSctd-19" value="1" style="rounded=0;whiteSpace=wrap;html=1;" parent="1" vertex="1">
          <mxGeometry x="130" y="610" width="60" height="40" as="geometry" />
        </mxCell>
        <mxCell id="OJlBbGmLdrQoNpGTSctd-28" style="edgeStyle=orthogonalEdgeStyle;rounded=0;orthogonalLoop=1;jettySize=auto;html=1;exitX=0.75;exitY=0;exitDx=0;exitDy=0;entryX=0;entryY=1;entryDx=0;entryDy=0;" parent="1" source="OJlBbGmLdrQoNpGTSctd-25" target="OJlBbGmLdrQoNpGTSctd-27" edge="1">
          <mxGeometry relative="1" as="geometry" />
        </mxCell>
        <mxCell id="OJlBbGmLdrQoNpGTSctd-25" value="2&lt;br&gt;runs application (Javascript)" style="rounded=0;whiteSpace=wrap;html=1;fillColor=#e1d5e7;strokeColor=#9673a6;" parent="1" vertex="1">
          <mxGeometry x="200" y="610" width="60" height="70" as="geometry" />
        </mxCell>
        <mxCell id="OJlBbGmLdrQoNpGTSctd-31" style="edgeStyle=orthogonalEdgeStyle;rounded=0;orthogonalLoop=1;jettySize=auto;html=1;exitX=0.75;exitY=1;exitDx=0;exitDy=0;entryX=0.25;entryY=0;entryDx=0;entryDy=0;" parent="1" source="OJlBbGmLdrQoNpGTSctd-27" target="OJlBbGmLdrQoNpGTSctd-30" edge="1">
          <mxGeometry relative="1" as="geometry" />
        </mxCell>
        <mxCell id="OJlBbGmLdrQoNpGTSctd-32" value="JSON" style="edgeLabel;html=1;align=center;verticalAlign=middle;resizable=0;points=[];" parent="OJlBbGmLdrQoNpGTSctd-31" vertex="1" connectable="0">
          <mxGeometry x="-0.5111" y="-1" relative="1" as="geometry">
            <mxPoint as="offset" />
          </mxGeometry>
        </mxCell>
        <mxCell id="OJlBbGmLdrQoNpGTSctd-27" value="Controller" style="rounded=0;whiteSpace=wrap;html=1;fillColor=#fff2cc;strokeColor=#d6b656;" parent="1" vertex="1">
          <mxGeometry x="240" y="500" width="100" height="40" as="geometry" />
        </mxCell>
        <mxCell id="OJlBbGmLdrQoNpGTSctd-34" style="edgeStyle=orthogonalEdgeStyle;rounded=0;orthogonalLoop=1;jettySize=auto;html=1;exitX=1;exitY=0.5;exitDx=0;exitDy=0;entryX=0;entryY=0.5;entryDx=0;entryDy=0;" parent="1" source="OJlBbGmLdrQoNpGTSctd-30" target="OJlBbGmLdrQoNpGTSctd-33" edge="1">
          <mxGeometry relative="1" as="geometry" />
        </mxCell>
        <mxCell id="OJlBbGmLdrQoNpGTSctd-30" value="3&lt;br&gt;Render UI" style="rounded=0;whiteSpace=wrap;html=1;fillColor=#e1d5e7;strokeColor=#9673a6;" parent="1" vertex="1">
          <mxGeometry x="320" y="610" width="60" height="40" as="geometry" />
        </mxCell>
        <mxCell id="OJlBbGmLdrQoNpGTSctd-36" style="edgeStyle=orthogonalEdgeStyle;rounded=0;orthogonalLoop=1;jettySize=auto;html=1;exitX=0.5;exitY=0;exitDx=0;exitDy=0;entryX=0.25;entryY=1;entryDx=0;entryDy=0;" parent="1" source="OJlBbGmLdrQoNpGTSctd-33" target="OJlBbGmLdrQoNpGTSctd-35" edge="1">
          <mxGeometry relative="1" as="geometry" />
        </mxCell>
        <mxCell id="OJlBbGmLdrQoNpGTSctd-33" value="4&lt;br&gt;Input" style="rounded=0;whiteSpace=wrap;html=1;fillColor=#e1d5e7;strokeColor=#9673a6;" parent="1" vertex="1">
          <mxGeometry x="400" y="610" width="50" height="40" as="geometry" />
        </mxCell>
        <mxCell id="OJlBbGmLdrQoNpGTSctd-35" value="Controller" style="rounded=0;whiteSpace=wrap;html=1;fillColor=#fff2cc;strokeColor=#d6b656;" parent="1" vertex="1">
          <mxGeometry x="375" y="500" width="100" height="40" as="geometry" />
        </mxCell>
        <mxCell id="OJlBbGmLdrQoNpGTSctd-37" value="Server" style="rounded=0;whiteSpace=wrap;html=1;fillColor=#dae8fc;strokeColor=#6c8ebf;" parent="1" vertex="1">
          <mxGeometry x="120" y="700" width="360" height="60" as="geometry" />
        </mxCell>
        <mxCell id="OJlBbGmLdrQoNpGTSctd-38" value="Client" style="rounded=0;whiteSpace=wrap;html=1;fillColor=#d5e8d4;strokeColor=#82b366;" parent="1" vertex="1">
          <mxGeometry x="120" y="810" width="360" height="60" as="geometry" />
        </mxCell>
        <mxCell id="OJlBbGmLdrQoNpGTSctd-39" value="" style="shape=flexArrow;endArrow=classic;html=1;rounded=0;" parent="1" edge="1">
          <mxGeometry width="50" height="50" relative="1" as="geometry">
            <mxPoint x="125" y="790" as="sourcePoint" />
            <mxPoint x="475" y="790" as="targetPoint" />
          </mxGeometry>
        </mxCell>
        <mxCell id="OJlBbGmLdrQoNpGTSctd-44" style="edgeStyle=orthogonalEdgeStyle;rounded=0;orthogonalLoop=1;jettySize=auto;html=1;exitX=0.75;exitY=0;exitDx=0;exitDy=0;entryX=0;entryY=1;entryDx=0;entryDy=0;" parent="1" source="OJlBbGmLdrQoNpGTSctd-45" target="OJlBbGmLdrQoNpGTSctd-48" edge="1">
          <mxGeometry relative="1" as="geometry" />
        </mxCell>
        <mxCell id="OJlBbGmLdrQoNpGTSctd-45" value="1" style="rounded=0;whiteSpace=wrap;html=1;" parent="1" vertex="1">
          <mxGeometry x="130" y="820" width="60" height="40" as="geometry" />
        </mxCell>
        <mxCell id="OJlBbGmLdrQoNpGTSctd-46" style="edgeStyle=orthogonalEdgeStyle;rounded=0;orthogonalLoop=1;jettySize=auto;html=1;exitX=0.75;exitY=1;exitDx=0;exitDy=0;entryX=0.25;entryY=0;entryDx=0;entryDy=0;" parent="1" source="OJlBbGmLdrQoNpGTSctd-48" target="OJlBbGmLdrQoNpGTSctd-50" edge="1">
          <mxGeometry relative="1" as="geometry" />
        </mxCell>
        <mxCell id="OJlBbGmLdrQoNpGTSctd-47" value="HTML" style="edgeLabel;html=1;align=center;verticalAlign=middle;resizable=0;points=[];" parent="OJlBbGmLdrQoNpGTSctd-46" vertex="1" connectable="0">
          <mxGeometry x="-0.5111" y="-1" relative="1" as="geometry">
            <mxPoint as="offset" />
          </mxGeometry>
        </mxCell>
        <mxCell id="OJlBbGmLdrQoNpGTSctd-48" value="Controller&lt;br&gt;(call Render UI)" style="rounded=0;whiteSpace=wrap;html=1;fillColor=#e1d5e7;strokeColor=#9673a6;" parent="1" vertex="1">
          <mxGeometry x="170" y="710" width="100" height="40" as="geometry" />
        </mxCell>
        <mxCell id="OJlBbGmLdrQoNpGTSctd-49" style="edgeStyle=orthogonalEdgeStyle;rounded=0;orthogonalLoop=1;jettySize=auto;html=1;exitX=1;exitY=0.5;exitDx=0;exitDy=0;entryX=0;entryY=0.5;entryDx=0;entryDy=0;" parent="1" source="OJlBbGmLdrQoNpGTSctd-50" target="OJlBbGmLdrQoNpGTSctd-52" edge="1">
          <mxGeometry relative="1" as="geometry" />
        </mxCell>
        <mxCell id="OJlBbGmLdrQoNpGTSctd-50" value="3&lt;br&gt;Display UI" style="rounded=0;whiteSpace=wrap;html=1;" parent="1" vertex="1">
          <mxGeometry x="250" y="820" width="60" height="40" as="geometry" />
        </mxCell>
        <mxCell id="OJlBbGmLdrQoNpGTSctd-51" style="edgeStyle=orthogonalEdgeStyle;rounded=0;orthogonalLoop=1;jettySize=auto;html=1;exitX=0.5;exitY=0;exitDx=0;exitDy=0;entryX=0.25;entryY=1;entryDx=0;entryDy=0;" parent="1" source="OJlBbGmLdrQoNpGTSctd-52" target="OJlBbGmLdrQoNpGTSctd-53" edge="1">
          <mxGeometry relative="1" as="geometry" />
        </mxCell>
        <mxCell id="OJlBbGmLdrQoNpGTSctd-52" value="4&lt;br&gt;Input" style="rounded=0;whiteSpace=wrap;html=1;" parent="1" vertex="1">
          <mxGeometry x="330" y="820" width="50" height="40" as="geometry" />
        </mxCell>
        <mxCell id="OJlBbGmLdrQoNpGTSctd-55" style="edgeStyle=orthogonalEdgeStyle;rounded=0;orthogonalLoop=1;jettySize=auto;html=1;exitX=0.75;exitY=1;exitDx=0;exitDy=0;entryX=0.25;entryY=0;entryDx=0;entryDy=0;" parent="1" source="OJlBbGmLdrQoNpGTSctd-53" target="OJlBbGmLdrQoNpGTSctd-54" edge="1">
          <mxGeometry relative="1" as="geometry" />
        </mxCell>
        <mxCell id="OJlBbGmLdrQoNpGTSctd-53" value="Controller&lt;br&gt;(call Render UI)" style="rounded=0;whiteSpace=wrap;html=1;fillColor=#e1d5e7;strokeColor=#9673a6;" parent="1" vertex="1">
          <mxGeometry x="330" y="710" width="100" height="40" as="geometry" />
        </mxCell>
        <mxCell id="OJlBbGmLdrQoNpGTSctd-54" value="4&lt;br&gt;display new site" style="rounded=0;whiteSpace=wrap;html=1;" parent="1" vertex="1">
          <mxGeometry x="400" y="820" width="60" height="40" as="geometry" />
        </mxCell>
        <mxCell id="OJlBbGmLdrQoNpGTSctd-56" value="Website" style="rounded=0;whiteSpace=wrap;html=1;" parent="1" vertex="1">
          <mxGeometry x="540" y="760" width="120" height="60" as="geometry" />
        </mxCell>
        <mxCell id="OJlBbGmLdrQoNpGTSctd-57" value="Web-Application" style="rounded=0;whiteSpace=wrap;html=1;" parent="1" vertex="1">
          <mxGeometry x="540" y="540" width="120" height="60" as="geometry" />
        </mxCell>
        <mxCell id="OJlBbGmLdrQoNpGTSctd-60" value="Server Side Rendered SPA&lt;br&gt;&lt;br&gt;Not of your concern in 1 year" style="rounded=0;whiteSpace=wrap;html=1;" parent="1" vertex="1">
          <mxGeometry x="490" y="930" width="220" height="90" as="geometry" />
        </mxCell>
        <mxCell id="OJlBbGmLdrQoNpGTSctd-61" value="Server side&lt;br&gt;&lt;br&gt;Ruby on rails&lt;br&gt;&lt;br&gt;Django (python)&lt;br&gt;&lt;br&gt;=&amp;gt; ASP.Net (dotnet 8 c#) + Razor Pages&lt;br&gt;&lt;br&gt;php (old)&lt;br&gt;&lt;br&gt;Spring (Java)&lt;br&gt;&lt;br&gt;GO, Rust, expert choises" style="rounded=0;whiteSpace=wrap;html=1;" parent="1" vertex="1">
          <mxGeometry x="300" y="930" width="140" height="210" as="geometry" />
        </mxCell>
        <mxCell id="OJlBbGmLdrQoNpGTSctd-62" value="Client Side&lt;br&gt;&lt;br&gt;&lt;div&gt;Vue.js&lt;br&gt;&lt;br&gt;=&amp;gt; React DOM&lt;br&gt;&lt;br&gt;Angular (i dont like it)&lt;br&gt;&lt;br&gt;=&amp;gt; Flutter (App development but can be used for Web)&lt;/div&gt;" style="rounded=0;whiteSpace=wrap;html=1;" parent="1" vertex="1">
          <mxGeometry x="140" y="930" width="120" height="210" as="geometry" />
        </mxCell>
        <mxCell id="OJlBbGmLdrQoNpGTSctd-63" value="Terms next time:&lt;br&gt;&lt;br&gt;DI (Dependecy Injection)&lt;br&gt;&lt;br&gt;Request Pipeline / Middleware" style="rounded=0;whiteSpace=wrap;html=1;" parent="1" vertex="1">
          <mxGeometry x="520" y="1190" width="230" height="180" as="geometry" />
        </mxCell>
        <mxCell id="OJlBbGmLdrQoNpGTSctd-68" style="edgeStyle=orthogonalEdgeStyle;rounded=0;orthogonalLoop=1;jettySize=auto;html=1;exitX=1;exitY=0.5;exitDx=0;exitDy=0;entryX=0;entryY=0.5;entryDx=0;entryDy=0;" parent="1" source="OJlBbGmLdrQoNpGTSctd-64" target="OJlBbGmLdrQoNpGTSctd-65" edge="1">
          <mxGeometry relative="1" as="geometry" />
        </mxCell>
        <mxCell id="OJlBbGmLdrQoNpGTSctd-64" value="Think of app idea&amp;nbsp;&lt;br&gt;(Simple)" style="rounded=0;whiteSpace=wrap;html=1;" parent="1" vertex="1">
          <mxGeometry x="117.5" y="1450" width="120" height="60" as="geometry" />
        </mxCell>
        <mxCell id="OJlBbGmLdrQoNpGTSctd-69" style="edgeStyle=orthogonalEdgeStyle;rounded=0;orthogonalLoop=1;jettySize=auto;html=1;exitX=1;exitY=0.5;exitDx=0;exitDy=0;entryX=0;entryY=0.5;entryDx=0;entryDy=0;" parent="1" source="OJlBbGmLdrQoNpGTSctd-65" target="OJlBbGmLdrQoNpGTSctd-66" edge="1">
          <mxGeometry relative="1" as="geometry" />
        </mxCell>
        <mxCell id="OJlBbGmLdrQoNpGTSctd-65" value="Razor Pages App (MVC)&lt;br&gt;&lt;br&gt;Storage in-memory" style="rounded=0;whiteSpace=wrap;html=1;" parent="1" vertex="1">
          <mxGeometry x="277.5" y="1450" width="120" height="60" as="geometry" />
        </mxCell>
        <mxCell id="OJlBbGmLdrQoNpGTSctd-70" style="edgeStyle=orthogonalEdgeStyle;rounded=0;orthogonalLoop=1;jettySize=auto;html=1;exitX=1;exitY=0.5;exitDx=0;exitDy=0;entryX=0;entryY=0.5;entryDx=0;entryDy=0;" parent="1" source="OJlBbGmLdrQoNpGTSctd-66" target="OJlBbGmLdrQoNpGTSctd-67" edge="1">
          <mxGeometry relative="1" as="geometry" />
        </mxCell>
        <mxCell id="OJlBbGmLdrQoNpGTSctd-66" value="Razor Pages App (MVC)&lt;br&gt;&lt;br&gt;Storage in SQL lite" style="rounded=0;whiteSpace=wrap;html=1;" parent="1" vertex="1">
          <mxGeometry x="452.5" y="1450" width="120" height="60" as="geometry" />
        </mxCell>
        <mxCell id="OJlBbGmLdrQoNpGTSctd-67" value="Rest API&amp;nbsp;&lt;br&gt;&lt;br&gt;With Client side Rendering" style="rounded=0;whiteSpace=wrap;html=1;" parent="1" vertex="1">
          <mxGeometry x="622.5" y="1430" width="120" height="100" as="geometry" />
        </mxCell>
        <mxCell id="IhxQTeWRG5M3wBYzgrrI-1" value="question" style="rounded=0;whiteSpace=wrap;html=1;" parent="1" vertex="1">
          <mxGeometry x="770" y="945" width="120" height="60" as="geometry" />
        </mxCell>
      </root>
    </mxGraphModel>
  </diagram>
</mxfile>
